<svg width="145" height="64" viewBox="0 0 145 64" fill="none" xmlns="http://www.w3.org/2000/svg">
<path d="M62.4081 33.0261H61.2487C61.1365 33.0261 61.0289 32.9815 60.9495 32.9022C60.8701 32.8228 60.8256 32.7152 60.8256 32.603V31.4478C60.8256 31.3356 60.8701 31.2279 60.9495 31.1486C61.0289 31.0692 61.1365 31.0247 61.2487 31.0247H62.4081C62.5203 31.0247 62.628 31.0692 62.7073 31.1486C62.7867 31.2279 62.8312 31.3356 62.8312 31.4478V32.6072C62.8312 32.7194 62.7867 32.8271 62.7073 32.9064C62.628 32.9858 62.5203 33.0303 62.4081 33.0303" fill="#EDEDED"/>
<path d="M58.9383 25.9809H57.7747C57.6625 25.9809 57.5549 25.9363 57.4755 25.8569C57.3961 25.7776 57.3516 25.6699 57.3516 25.5577V24.4068C57.3516 24.2946 57.3961 24.1869 57.4755 24.1076C57.5549 24.0282 57.6625 23.9836 57.7747 23.9836H58.9383C59.0506 23.9836 59.1582 24.0282 59.2375 24.1076C59.3169 24.1869 59.3615 24.2946 59.3615 24.4068V25.5662C59.3615 25.6784 59.3169 25.786 59.2375 25.8654C59.1582 25.9447 59.0506 25.9893 58.9383 25.9893" fill="#EDEDED"/>
<path d="M44.9282 33.5549H43.7688C43.6566 33.5549 43.549 33.5103 43.4696 33.431C43.3903 33.3516 43.3457 33.244 43.3457 33.1318V31.9766C43.3457 31.8644 43.3903 31.7568 43.4696 31.6774C43.549 31.598 43.6566 31.5535 43.7688 31.5535H44.9282C45.0405 31.5535 45.1481 31.598 45.2275 31.6774C45.3068 31.7568 45.3514 31.8644 45.3514 31.9766V33.136C45.3514 33.2482 45.3068 33.3559 45.2275 33.4352C45.1481 33.5146 45.0405 33.5592 44.9282 33.5592" fill="#EDEDED"/>
<path d="M57.1992 35.5437H56.0398C55.9276 35.5437 55.82 35.4991 55.7406 35.4198C55.6613 35.3404 55.6167 35.2328 55.6167 35.1206V33.9781C55.6167 33.8658 55.6613 33.7582 55.7406 33.6789C55.82 33.5995 55.9276 33.5549 56.0398 33.5549H57.1992C57.3115 33.5549 57.4191 33.5995 57.4984 33.6789C57.5778 33.7582 57.6224 33.8658 57.6224 33.9781V35.1206C57.6224 35.2328 57.5778 35.3404 57.4984 35.4198C57.4191 35.4991 57.3115 35.5437 57.1992 35.5437Z" fill="#EDEDED"/>
<path d="M51.3388 28.105H50.1794C50.0671 28.105 49.9595 28.0604 49.8802 27.981C49.8008 27.9017 49.7562 27.7941 49.7562 27.6818V26.5267C49.7562 26.4144 49.8008 26.3068 49.8802 26.2275C49.9595 26.1481 50.0671 26.1035 50.1794 26.1035H51.3388C51.451 26.1035 51.5586 26.1481 51.638 26.2275C51.7173 26.3068 51.7619 26.4144 51.7619 26.5267V27.6861C51.7619 27.7983 51.7173 27.9059 51.638 27.9853C51.5586 28.0646 51.451 28.1092 51.3388 28.1092" fill="#EDEDED"/>
<path d="M44.0524 23.2981H42.656C42.5901 23.2987 42.5247 23.2862 42.4636 23.2613C42.4026 23.2365 42.347 23.1998 42.3002 23.1534C42.2534 23.107 42.2162 23.0517 42.1909 22.9909C42.1655 22.93 42.1525 22.8648 42.1525 22.7988V21.4025C42.1525 21.2689 42.2055 21.1408 42.2999 21.0464C42.3944 20.952 42.5225 20.8989 42.656 20.8989H44.0524C44.1183 20.8989 44.1836 20.912 44.2444 20.9373C44.3053 20.9627 44.3605 20.9998 44.4069 21.0467C44.4534 21.0935 44.49 21.149 44.5149 21.2101C44.5397 21.2712 44.5522 21.3365 44.5517 21.4025V22.7988C44.5517 22.9313 44.4991 23.0583 44.4054 23.1519C44.3118 23.2455 44.1848 23.2981 44.0524 23.2981Z" fill="#EDEDED"/>
<path d="M57.5505 40.6977H56.1499C56.0175 40.6977 55.8905 40.6451 55.7969 40.5515C55.7032 40.4578 55.6506 40.3308 55.6506 40.1984V38.802C55.6506 38.6696 55.7032 38.5426 55.7969 38.449C55.8905 38.3553 56.0175 38.3027 56.1499 38.3027H57.5505C57.6161 38.3027 57.681 38.3157 57.7416 38.3407C57.8022 38.3658 57.8572 38.4026 57.9036 38.449C57.95 38.4953 57.9867 38.5504 58.0118 38.611C58.0369 38.6715 58.0498 38.7365 58.0498 38.802V40.1984C58.0504 40.2643 58.0379 40.3297 58.0131 40.3908C57.9882 40.4518 57.9515 40.5074 57.9051 40.5542C57.8587 40.601 57.8034 40.6382 57.7426 40.6635C57.6817 40.6889 57.6165 40.7019 57.5505 40.7019" fill="#EDEDED"/>
<path d="M51.3641 17.3234H49.6716C49.5107 17.3223 49.3568 17.2576 49.2434 17.1434C49.1301 17.0293 49.0665 16.8749 49.0665 16.7141V15.0215C49.0653 14.9413 49.0802 14.8617 49.1101 14.7874C49.14 14.713 49.1844 14.6453 49.2407 14.5882C49.297 14.5311 49.3641 14.4858 49.438 14.4548C49.512 14.4239 49.5914 14.408 49.6716 14.408H51.3641C51.525 14.408 51.6793 14.4716 51.7935 14.5849C51.9076 14.6983 51.9723 14.8522 51.9734 15.0131V16.7056C51.974 16.7862 51.9587 16.8661 51.9284 16.9407C51.898 17.0154 51.8533 17.0833 51.7967 17.1407C51.7401 17.1981 51.6728 17.2437 51.5986 17.2751C51.5244 17.3064 51.4447 17.3228 51.3641 17.3234Z" fill="#EDEDED"/>
<path d="M58.9257 15.2923H57.2331C57.1529 15.2929 57.0735 15.2775 56.9993 15.2471C56.9251 15.2167 56.8577 15.1718 56.801 15.1151C56.7443 15.0584 56.6995 14.991 56.669 14.9168C56.6386 14.8427 56.6232 14.7632 56.6238 14.683V12.9904C56.6232 12.9103 56.6386 12.8308 56.669 12.7566C56.6995 12.6824 56.7443 12.615 56.801 12.5583C56.8577 12.5016 56.9251 12.4568 56.9993 12.4264C57.0735 12.3959 57.1529 12.3806 57.2331 12.3811H58.9257C59.0873 12.3811 59.2423 12.4453 59.3565 12.5596C59.4708 12.6739 59.535 12.8288 59.535 12.9904V14.683C59.535 14.8446 59.4708 14.9996 59.3565 15.1139C59.2423 15.2281 59.0873 15.2923 58.9257 15.2923Z" fill="#EDEDED"/>
<path d="M63.411 27.9272H62.0104C61.9434 27.9262 61.8772 27.9116 61.8159 27.8844C61.7546 27.8573 61.6994 27.818 61.6536 27.7691C61.6078 27.7201 61.5723 27.6624 61.5493 27.5994C61.5263 27.5364 61.5162 27.4695 61.5196 27.4025V26.0061C61.5196 25.8737 61.5722 25.7467 61.6658 25.6531C61.7595 25.5594 61.8864 25.5068 62.0189 25.5068H63.4195C63.5519 25.5068 63.6789 25.5594 63.7725 25.6531C63.8662 25.7467 63.9188 25.8737 63.9188 26.0061V27.4025C63.9223 27.4709 63.9117 27.5393 63.8876 27.6034C63.8635 27.6675 63.8265 27.726 63.7789 27.7752C63.7313 27.8244 63.6741 27.8633 63.6108 27.8895C63.5475 27.9156 63.4795 27.9284 63.411 27.9272Z" fill="#EDEDED"/>
<path d="M49.2485 24.157H47.8522C47.7862 24.1576 47.7209 24.1451 47.6598 24.1203C47.5987 24.0954 47.5432 24.0587 47.4964 24.0123C47.4496 23.9659 47.4124 23.9106 47.387 23.8498C47.3617 23.7889 47.3486 23.7237 47.3486 23.6577V22.2571C47.3486 22.1912 47.3617 22.1259 47.387 22.0651C47.4124 22.0042 47.4496 21.949 47.4964 21.9026C47.5432 21.8561 47.5987 21.8195 47.6598 21.7946C47.7209 21.7698 47.7862 21.7573 47.8522 21.7578H49.2485C49.381 21.7578 49.508 21.8104 49.6016 21.9041C49.6952 21.9977 49.7478 22.1247 49.7478 22.2571V23.6577C49.7478 23.7902 49.6952 23.9172 49.6016 24.0108C49.508 24.1044 49.381 24.157 49.2485 24.157Z" fill="#EDEDED"/>
<path d="M64.93 23.514H63.5295C63.397 23.514 63.27 23.4613 63.1764 23.3677C63.0828 23.2741 63.0302 23.1471 63.0302 23.0146V21.6141C63.0302 21.4816 63.0828 21.3546 63.1764 21.261C63.27 21.1674 63.397 21.1147 63.5295 21.1147H64.93C65.0625 21.1147 65.1895 21.1674 65.2831 21.261C65.3767 21.3546 65.4294 21.4816 65.4294 21.6141V23.0146C65.4294 23.1471 65.3767 23.2741 65.2831 23.3677C65.1895 23.4613 65.0625 23.514 64.93 23.514Z" fill="#EDEDED"/>
<path d="M42.8506 29.167H41.4543C41.3884 29.1671 41.3231 29.154 41.2622 29.1286C41.2014 29.1033 41.1461 29.0661 41.0997 29.0193C41.0533 28.9725 41.0166 28.917 40.9918 28.8559C40.9669 28.7948 40.9544 28.7294 40.955 28.6635V27.2671C40.955 27.1347 41.0076 27.0077 41.1012 26.9141C41.1949 26.8204 41.3219 26.7678 41.4543 26.7678H42.8506C42.9166 26.7673 42.982 26.7798 43.043 26.8046C43.1041 26.8295 43.1596 26.8662 43.2064 26.9126C43.2533 26.959 43.2904 27.0142 43.3158 27.0751C43.3411 27.1359 43.3542 27.2012 43.3542 27.2671V28.6635C43.3542 28.7971 43.3011 28.9251 43.2067 29.0196C43.1123 29.114 42.9842 29.167 42.8506 29.167Z" fill="#EDEDED"/>
<path d="M67.3716 31.5198H65.6791C65.5996 31.5198 65.5209 31.5042 65.4475 31.4738C65.3741 31.4434 65.3074 31.3988 65.2512 31.3426C65.195 31.2864 65.1504 31.2197 65.12 31.1463C65.0896 31.0729 65.074 30.9942 65.074 30.9148V29.2222C65.0751 29.0625 65.1393 28.9096 65.2527 28.7971C65.366 28.6845 65.5193 28.6213 65.6791 28.6213H67.3716C67.5306 28.6224 67.6828 28.6861 67.7953 28.7985C67.9077 28.911 67.9714 29.0632 67.9725 29.2222V30.9148C67.9725 31.0745 67.9093 31.2278 67.7968 31.3411C67.6842 31.4545 67.5314 31.5187 67.3716 31.5198Z" fill="#EDEDED"/>
<path d="M62.4843 38.2814H60.7917C60.7119 38.2798 60.6332 38.2623 60.5601 38.2301C60.4871 38.1979 60.4211 38.1516 60.366 38.0937C60.3109 38.0359 60.2679 37.9678 60.2393 37.8932C60.2107 37.8187 60.1971 37.7392 60.1993 37.6594V35.9668C60.2004 35.8078 60.2641 35.6556 60.3765 35.5432C60.489 35.4307 60.6412 35.3671 60.8002 35.366H62.4928C62.6525 35.366 62.8058 35.4291 62.9191 35.5417C63.0325 35.6543 63.0967 35.8071 63.0978 35.9668V37.6594C63.0978 37.8199 63.0341 37.9738 62.9206 38.0873C62.8071 38.2007 62.6532 38.2645 62.4928 38.2645" fill="#EDEDED"/>
<path d="M46.8409 39.5087H45.1483C44.9878 39.5087 44.8339 39.445 44.7204 39.3315C44.607 39.218 44.5432 39.0641 44.5432 38.9036V37.2364C44.5432 37.076 44.607 36.9221 44.7204 36.8086C44.8339 36.6951 44.9878 36.6313 45.1483 36.6313H46.8409C47.0013 36.6313 47.1553 36.6951 47.2687 36.8086C47.3822 36.9221 47.446 37.076 47.446 37.2364V38.929C47.446 39.0895 47.3822 39.2434 47.2687 39.3569C47.1553 39.4703 47.0013 39.5341 46.8409 39.5341" fill="#EDEDED"/>
<path d="M64.8327 19.8156H61.8708C61.5917 19.8145 61.3243 19.7032 61.127 19.5058C60.9296 19.3085 60.8183 19.0411 60.8171 18.762V15.8C60.8171 15.5202 60.928 15.2518 61.1255 15.0535C61.323 14.8553 61.5909 14.7433 61.8708 14.7422H64.8327C65.1133 14.7422 65.3824 14.8536 65.5808 15.052C65.7791 15.2504 65.8906 15.5195 65.8906 15.8V18.762C65.8895 19.0418 65.7775 19.3098 65.5793 19.5073C65.381 19.7048 65.1126 19.8156 64.8327 19.8156Z" fill="#EDEDED"/>
<path d="M70.4055 23.3786H67.4435C67.1636 23.3786 66.8952 23.2678 66.697 23.0703C66.4987 22.8728 66.3867 22.6048 66.3856 22.325V19.363C66.3856 19.0825 66.4971 18.8134 66.6955 18.615C66.8938 18.4166 67.1629 18.3052 67.4435 18.3052H70.4055C70.6853 18.3063 70.9533 18.4182 71.1507 18.6165C71.3482 18.8148 71.4591 19.0832 71.4591 19.363V22.325C71.458 22.6041 71.3466 22.8715 71.1492 23.0688C70.9519 23.2662 70.6845 23.3775 70.4055 23.3786Z" fill="#EDEDED"/>
<path d="M52.9891 44.1081H50.0271C49.7465 44.1081 49.4775 43.9967 49.2791 43.7983C49.0807 43.5999 48.9692 43.3308 48.9692 43.0503V40.0883C48.9704 39.8085 49.0823 39.5405 49.2806 39.343C49.4788 39.1455 49.7473 39.0347 50.0271 39.0347H52.9891C53.2682 39.0358 53.5355 39.1471 53.7329 39.3445C53.9302 39.5418 54.0416 39.8092 54.0427 40.0883V43.0503C54.0427 43.3301 53.9318 43.5985 53.7344 43.7968C53.5369 43.9951 53.2689 44.107 52.9891 44.1081Z" fill="#EDEDED"/>
<path d="M73.0289 30.0429H70.0881C69.8076 30.0429 69.5385 29.9315 69.3401 29.7331C69.1417 29.5347 69.0303 29.2656 69.0303 28.9851V26.0231C69.0314 25.7433 69.1433 25.4753 69.3416 25.2778C69.5399 25.0804 69.8083 24.9695 70.0881 24.9695H73.0289C73.3088 24.9695 73.5772 25.0804 73.7755 25.2778C73.9737 25.4753 74.0857 25.7433 74.0868 26.0231V28.9851C74.0868 29.2656 73.9754 29.5347 73.777 29.7331C73.5786 29.9315 73.3095 30.0429 73.0289 30.0429Z" fill="#EDEDED"/>
<path d="M72.1743 36.7583H69.2123C68.9324 36.7583 68.664 36.6474 68.4658 36.4499C68.2675 36.2525 68.1555 35.9845 68.1544 35.7046V32.7427C68.1544 32.4621 68.2659 32.193 68.4643 31.9947C68.6626 31.7963 68.9317 31.6848 69.2123 31.6848H72.1743C72.4541 31.6859 72.7221 31.7979 72.9195 31.9961C73.117 32.1944 73.2279 32.4628 73.2279 32.7427V35.7046C73.2268 35.9837 73.1154 36.2511 72.918 36.4484C72.7207 36.6458 72.4533 36.7572 72.1743 36.7583Z" fill="#EDEDED"/>
<path d="M56.9962 22.9597H54.0342C53.7536 22.9597 53.4845 22.8482 53.2862 22.6498C53.0878 22.4515 52.9763 22.1824 52.9763 21.9018V18.9398C52.9774 18.66 53.0894 18.392 53.2876 18.1946C53.4859 17.9971 53.7543 17.8862 54.0342 17.8862H56.9962C57.2752 17.8873 57.5426 17.9987 57.7399 18.1961C57.9373 18.3934 58.0487 18.6608 58.0498 18.9398V21.9018C58.0498 22.1817 57.9389 22.4501 57.7414 22.6484C57.544 22.8466 57.276 22.9586 56.9962 22.9597Z" fill="#EDEDED"/>
<path d="M68.5013 42.2802H65.5393C65.2595 42.2791 64.9915 42.1672 64.7941 41.9689C64.5966 41.7707 64.4857 41.5022 64.4857 41.2224V38.2604C64.4946 37.9835 64.6116 37.7212 64.8118 37.5297C65.012 37.3383 65.2793 37.2329 65.5563 37.2364H68.5182C68.7981 37.2364 69.0665 37.3473 69.2648 37.5447C69.463 37.7422 69.575 38.0102 69.5761 38.29V41.252C69.5761 41.5326 69.4646 41.8016 69.2663 42C69.0679 42.1984 68.7988 42.3099 68.5182 42.3099" fill="#EDEDED"/>
<path d="M62.7889 45.1999H59.8269C59.5478 45.1988 59.2805 45.0874 59.0831 44.8901C58.8858 44.6927 58.7744 44.4254 58.7733 44.1463V41.1843C58.7733 40.9045 58.8842 40.6361 59.0817 40.4378C59.2791 40.2395 59.5471 40.1276 59.8269 40.1265H62.7889C63.0695 40.1265 63.3385 40.2379 63.5369 40.4363C63.7353 40.6347 63.8468 40.9038 63.8468 41.1843V44.1463C63.8457 44.4261 63.7337 44.6941 63.5354 44.8916C63.3372 45.0891 63.0687 45.1999 62.7889 45.1999Z" fill="#EDEDED"/>
<path d="M52.769 36.8131H49.807C49.5272 36.8131 49.2587 36.7023 49.0605 36.5048C48.8622 36.3073 48.7503 36.0393 48.7491 35.7595V32.7975C48.7491 32.6588 48.7765 32.5215 48.8297 32.3933C48.883 32.2652 48.961 32.1489 49.0592 32.051C49.1575 31.9531 49.2742 31.8756 49.4025 31.8229C49.5308 31.7702 49.6683 31.7433 49.807 31.7439H52.769C53.0484 31.7439 53.3164 31.8549 53.514 32.0525C53.7116 32.2501 53.8226 32.5181 53.8226 32.7975V35.7595C53.8215 36.0386 53.7101 36.3059 53.5128 36.5033C53.3154 36.7007 53.0481 36.812 52.769 36.8131Z" fill="#EDEDED"/>
<path d="M58.6252 32.3956H55.0751C54.7384 32.3956 54.4155 32.2619 54.1775 32.0238C53.9394 31.7858 53.8057 31.4629 53.8057 31.1262V27.5761C53.8057 27.2394 53.9394 26.9165 54.1775 26.6784C54.4155 26.4404 54.7384 26.3066 55.0751 26.3066H58.6252C58.9619 26.3066 59.2848 26.4404 59.5229 26.6784C59.7609 26.9165 59.8947 27.2394 59.8947 27.5761V31.1262C59.8947 31.4629 59.7609 31.7858 59.5229 32.0238C59.2848 32.2619 58.9619 32.3956 58.6252 32.3956Z" fill="#EDEDED"/>
<path d="M16.8316 25.0796L13.2392 24.5422C14.297 16.9976 18.2576 12.4023 25.9757 12.4023C33.1014 12.4023 37.0112 15.6267 37.0112 21.7114C37.0112 27.6777 32.4159 30.3731 25.2352 32.4846C17.7879 34.8626 15.7822 36.6568 15.5707 41.7937C18.5792 41.5821 23.1195 41.3705 26.6062 41.3705H37.5359V44.6964H12.2913C12.2363 43.9052 12.2363 43.1139 12.2363 42.2676C12.2363 35.0742 15.6215 32.2349 23.3268 29.8569C30.6683 27.6142 33.2579 25.5028 33.2579 21.5803C33.2579 18.0936 31.0915 15.6563 26.0222 15.6563C20.5807 15.6563 17.6779 18.6648 16.8316 25.0585" fill="#EDEDED"/>
<path d="M82.537 25.0796L78.9445 24.5422C79.9981 16.9891 83.9629 12.3938 91.6726 12.3938C98.8025 12.3938 102.712 15.6181 102.712 21.7029C102.712 27.6692 98.117 30.3646 90.9321 32.476C83.4848 34.8541 81.4791 36.6482 81.2675 41.7851C84.2761 41.5736 88.8206 41.362 92.3073 41.362H103.237V44.6879H77.9924C77.9416 43.8966 77.9417 43.1053 77.9417 42.2591C77.9417 35.0657 81.3268 32.2264 89.0322 29.8483C96.3737 27.6311 98.959 25.5196 98.959 21.6098C98.959 18.1231 96.7968 15.6858 91.7233 15.6858C86.286 15.6858 83.379 18.6944 82.537 25.088" fill="#EDEDED"/>
<path d="M129.01 34.9556C129.01 30.6777 126.425 28.5662 120.878 28.5662C117.603 28.5662 114.383 29.6198 112.745 30.7835L109.631 29.569V12.9819H131.016V16.4686C123.044 16.4686 117.234 16.2063 113.007 15.9947V28.1431C115.017 26.7679 117.975 25.6592 121.83 25.6592C128.905 25.6592 132.759 28.8285 132.759 35.0064C132.759 42.0855 128.105 45.1998 120.827 45.1998C113.854 45.1998 109.576 42.4537 107.092 36.3139L110.684 35.0445C112.428 39.352 115.385 42.0305 120.928 42.0305C126.37 42.0305 129.01 39.8683 129.01 34.9556Z" fill="#EDEDED"/>
<path d="M0.164185 39.5974H1.98792C1.98792 43.6765 1.98792 47.7541 1.98792 51.8304C1.98681 52.3425 2.08665 52.8499 2.28173 53.3234C2.47682 53.7969 2.76333 54.2273 3.12487 54.5901C3.48641 54.9528 3.91591 55.2407 4.38879 55.4373C4.86168 55.6339 5.36868 55.7354 5.88081 55.736H18.1519V57.5597H1.43361C1.10057 57.5598 0.780851 57.4289 0.543388 57.1954C0.305924 56.9619 0.169735 56.6445 0.164185 56.3115L0.164185 39.5974Z" fill="#EDEDED"/>
<path d="M144.836 17.9792H143.012C143.012 13.9002 143.012 9.8225 143.012 5.74625C143.012 4.71262 142.602 3.72114 141.873 2.98906C141.143 2.25698 140.153 1.84402 139.119 1.84066H126.848V0H143.575C143.912 0 144.235 0.133742 144.473 0.371805C144.711 0.609868 144.844 0.93275 144.844 1.26942L144.836 17.9792Z" fill="#EDEDED"/>
<path d="M22.5484 62.0365V61.1098H24.2409V56.3453C23.7712 56.5357 23.2677 56.7346 22.7345 56.925L22.4003 56.0787L24.6429 55.334H25.2226V61.1014H26.492V62.0281L22.5484 62.0365Z" fill="#EDEDED"/>
<path d="M27.4525 59.8954L28.4215 59.7177C28.6458 60.7417 29.1916 61.2579 30.2622 61.2579C31.5316 61.2579 32.1071 60.3524 32.1071 58.4652C32.1071 58.2748 32.1071 58.0971 32.1071 57.8093H32.0605C31.8405 58.9349 31.0577 59.4257 29.8306 59.4257C28.6035 59.4257 27.5879 58.8884 27.5879 57.4708C27.5879 56.0533 28.4807 55.207 30.2199 55.207C31.959 55.207 33.0887 56.1125 33.0887 58.6429C33.0887 60.6444 32.2848 62.1719 30.2749 62.1719C28.5654 62.1719 27.7276 61.3891 27.4525 59.8954ZM31.959 57.4497C31.959 56.7261 31.3581 56.121 30.2072 56.121C28.9927 56.121 28.5781 56.6923 28.5781 57.5047C28.5781 58.3171 29.1366 58.7233 30.0971 58.7233C31.3581 58.7233 31.959 58.1098 31.959 57.4497Z" fill="#EDEDED"/>
<path d="M37.5317 58.8462V59.794H34.0916V58.8462H37.5317Z" fill="#EDEDED"/>
<path d="M39.6093 58.2665L38.6699 58.1861C38.8265 56.2904 39.7405 55.2241 41.4499 55.2241C42.9775 55.2241 43.8576 55.935 43.8576 57.2552C43.8576 58.5754 42.9309 59.117 41.3188 59.5317C39.9351 59.9548 39.5416 60.268 39.4993 61.1481C40.0113 61.1481 40.6714 61.1269 41.1622 61.1269H43.9634V62.0409H38.4922C38.4922 61.8505 38.4922 61.6516 38.4922 61.4485C38.4922 59.8871 39.22 59.2397 40.8914 58.77C42.3428 58.3681 42.8125 57.9661 42.8125 57.2425C42.8125 56.6163 42.3893 56.1254 41.4288 56.1254C40.3625 56.1212 39.732 56.7474 39.6093 58.2665Z" fill="#EDEDED"/>
<path d="M45.1906 62.0365V61.1098H46.8831V56.3453C46.4177 56.5357 45.9142 56.7346 45.3768 56.925L45.0425 56.0787L47.2851 55.334H47.8691V61.1014H49.1385V62.0281L45.1906 62.0365Z" fill="#EDEDED"/>
<path d="M52.9806 59.3624V62.1212H51.9524V55.4314H56.4419V56.4046H52.9976V58.3934H56.0738V59.3666L52.9806 59.3624Z" fill="#EDEDED"/>
<path d="M57.7451 59.5528C57.7451 57.8095 58.8072 56.7686 60.394 56.7686C61.9808 56.7686 62.789 57.7629 62.789 59.1931C62.7917 59.4022 62.7832 59.6113 62.7636 59.8194H58.7183C58.8199 60.8392 59.4123 61.3977 60.4109 61.3977C60.7505 61.4327 61.0909 61.3398 61.3656 61.1371C61.6403 60.9344 61.8294 60.6366 61.8961 60.3018L62.7424 60.5599C62.4716 61.5881 61.7226 62.2525 60.394 62.2525C58.7945 62.244 57.7451 61.2623 57.7451 59.5528ZM58.7395 59.0577H61.8707C61.803 58.1311 61.3249 57.6064 60.3601 57.6064C60.1577 57.592 59.9545 57.6185 59.7625 57.6843C59.5705 57.75 59.3937 57.8536 59.2426 57.989C59.0914 58.1243 58.969 58.2887 58.8826 58.4723C58.7961 58.6559 58.7475 58.855 58.7395 59.0577Z" fill="#EDEDED"/>
<path d="M65.2136 58.4356H65.2348C65.459 57.3947 66.0811 56.7684 67.1812 56.7684C68.5903 56.7684 69.3265 57.8178 69.3265 59.4977C69.3265 61.1776 68.548 62.2566 67.2108 62.2566C66.0599 62.2566 65.4548 61.6219 65.2432 60.564V62.1169H64.27V55.2705H65.2432L65.2136 58.4356ZM68.366 59.4977C68.366 58.3214 67.8752 57.6528 66.8258 57.6528C65.8399 57.6528 65.2136 58.3002 65.2136 59.4638V59.54C65.2136 60.6571 65.8399 61.3849 66.8258 61.3849C67.8117 61.3849 68.366 60.6909 68.366 59.4977Z" fill="#EDEDED"/>
<path d="M70.8032 62.1211V56.9038H71.7764V58.5117H71.8018C72.0134 57.2931 72.5042 56.9038 73.3421 56.9038H73.6679V57.9701H73.1982C72.2123 57.9701 71.7764 58.351 71.7764 59.358V62.1169L70.8032 62.1211Z" fill="#EDEDED"/>
<path d="M78.5086 60.7121C78.4586 61.1526 78.2426 61.5575 77.9046 61.8445C77.5666 62.1314 77.1319 62.2787 76.6891 62.2565C75.335 62.2565 74.8654 61.3637 74.8654 60.2466V56.9038H75.8386V59.997C75.8386 60.7121 76.1517 61.3637 77.108 61.3637C78.0643 61.3637 78.5382 60.8686 78.5382 59.997V56.9038H79.5114V62.1211H78.5382L78.5086 60.7121Z" fill="#EDEDED"/>
<path d="M84.5807 60.7926C84.4995 61.2155 84.2678 61.5946 83.9287 61.8599C83.5895 62.1252 83.1657 62.2586 82.7358 62.2355C81.7202 62.2355 81.0432 61.7447 81.0432 60.7588C81.0432 59.8406 81.6229 59.1593 82.8881 59.1593H84.5807V58.88C84.5807 58.0634 84.2675 57.6106 83.4382 57.6106C82.6892 57.6106 82.2788 57.9576 82.1307 58.8166L81.204 58.6811C81.3817 57.4625 82.0968 56.7812 83.472 56.7812C84.9276 56.7812 85.5539 57.5175 85.5539 58.8631V62.1128H84.5807V60.7926ZM84.5807 60.1791V59.9336H83.0277C82.3676 59.9336 82.008 60.1791 82.008 60.6361C82.008 61.0931 82.2661 61.4189 83.0277 61.4189C83.9883 61.4189 84.5807 60.8942 84.5807 60.1791Z" fill="#EDEDED"/>
<path d="M87.2634 62.1211V56.9038H88.2367V58.5117H88.2578C88.4694 57.2931 88.9645 56.9038 89.8023 56.9038H90.1239V57.9701H89.6584C88.6725 57.9701 88.2367 58.351 88.2367 59.358V62.1169L87.2634 62.1211Z" fill="#EDEDED"/>
<path d="M90.8516 63.9322L90.9997 63.0055C91.2165 63.0546 91.4376 63.0816 91.6598 63.0859C92.2734 63.0859 92.6204 62.9505 93.0097 62.045L90.7966 56.9038H91.8587L92.5992 58.7699C92.8446 59.4173 93.2212 60.3439 93.5132 61.1268C93.8052 60.3228 94.1521 59.4342 94.3595 58.7783L95.028 56.9038H96.069L93.9067 62.2015C93.3693 63.471 92.7304 64.0126 91.6344 64.0126C91.3717 64.0076 91.1099 63.9807 90.8516 63.9322Z" fill="#EDEDED"/>
</svg>
