<svg width="124" height="104" viewBox="0 0 124 104" fill="none" xmlns="http://www.w3.org/2000/svg"><path d="M88.7373 36.76V68.5583H57.0165V72.1192H81.0489C83.0811 72.1173 85.0309 72.9234 86.4699 74.3602C87.9089 75.7971 88.7193 77.7472 88.7231 79.7821V103.918H92.2792V72.1334H124V68.5726H99.9676C97.9454 68.5575 96.0113 67.7416 94.588 66.3031C93.1647 64.8645 92.3679 62.9204 92.3717 60.8954L92.329 36.76H88.7373Z" fill="#92D240"></path><path d="M111.304 80.5654V91.1268H100.764V92.3233H108.73C109.404 92.3233 110.05 92.5909 110.528 93.0675C111.005 93.5441 111.274 94.1908 111.276 94.8657V102.885H112.464V92.3162H123.004V91.1268H115.053C114.718 91.1268 114.387 91.0609 114.078 90.9327C113.769 90.8046 113.489 90.6168 113.252 90.3801C113.016 90.1433 112.828 89.8623 112.7 89.5529C112.572 89.2436 112.506 88.9121 112.506 88.5773V80.5582L111.304 80.5654Z" fill="#92D240"></path><path d="M15.9429 19.1053V34.481H0.623047V36.1902H12.2374C12.7228 36.1893 13.2035 36.2842 13.6522 36.4695C14.1009 36.6549 14.5086 36.927 14.8521 37.2703C15.1957 37.6136 15.4682 38.0214 15.6542 38.4703C15.8401 38.9192 15.9358 39.4004 15.9358 39.8864V51.5446H17.6925V36.1831H32.9982V34.481H21.3981C20.9106 34.482 20.4277 34.3864 19.9773 34.1998C19.5268 34.0132 19.1176 33.7393 18.7732 33.3939C18.4289 33.0484 18.1561 32.6381 17.9707 32.1867C17.7852 31.7353 17.6907 31.2516 17.6925 30.7635V19.1053H15.9429Z" fill="#92D240"></path><path d="M53.5311 19.1053V34.481H38.2184V36.1902H49.8256C50.311 36.1893 50.7917 36.2842 51.2404 36.4695C51.6891 36.6549 52.0969 36.927 52.4404 37.2703C52.7839 37.6136 53.0564 38.0214 53.2424 38.4703C53.4283 38.9192 53.524 39.4004 53.524 39.8864V51.5446H55.2523V36.1831H70.5864V34.481H58.9792C58.4938 34.482 58.0131 34.387 57.5644 34.2017C57.1157 34.0164 56.708 33.7443 56.3644 33.401C56.0209 33.0577 55.7484 32.6499 55.5624 32.201C55.3765 31.7521 55.2808 31.2709 55.2808 30.7849V19.1267L53.5311 19.1053Z" fill="#92D240"></path><path d="M0.623047 55.0128H15.9571V70.3458H17.6925C17.6925 66.4716 17.6925 62.5879 17.6925 58.6947C17.6916 58.2088 17.7864 57.7274 17.9715 57.2781C18.1566 56.8288 18.4283 56.4205 18.7712 56.0765C19.114 55.7326 19.5213 55.4597 19.9696 55.2735C20.4179 55.0873 20.8985 54.9915 21.3838 54.9915H33.0195V53.268H17.6925V37.935H15.95C15.95 41.8092 15.95 45.681 15.95 49.5505C15.95 50.5333 15.5606 51.476 14.8672 52.1716C14.1739 52.8672 13.2332 53.259 12.2516 53.2609L0.623047 53.2751V55.0128Z" fill="#92D240"></path><path d="M38.2116 17.3888H53.5386V32.7076H55.274C55.274 28.8334 55.274 24.9616 55.274 21.0921C55.274 20.1148 55.6597 19.1772 56.3472 18.4835C57.0346 17.7898 57.968 17.3963 58.9439 17.3888H70.5797V15.6298H55.2669V0.296753H53.5315C53.5315 4.17095 53.5315 8.04516 53.5315 11.9194C53.5315 12.9015 53.1418 13.8435 52.4483 14.538C51.7547 15.2325 50.814 15.6226 49.8331 15.6226H38.1974L38.2116 17.3888Z" fill="#92D240"></path></svg>